<?xml version="1.0" encoding="utf-8"?>
<!-- Generator: Adobe Illustrator 15.0.0, SVG Export Plug-In . SVG Version: 6.00 Build 0)  -->
<!DOCTYPE svg PUBLIC "-//W3C//DTD SVG 1.1//EN" "http://www.w3.org/Graphics/SVG/1.1/DTD/svg11.dtd">
<svg version="1.1" id="Calque_1" xmlns="http://www.w3.org/2000/svg" xmlns:xlink="http://www.w3.org/1999/xlink" x="0px" y="0px"
	 width="512px" height="512px" viewBox="0 0 512 512" enable-background="new 0 0 512 512" xml:space="preserve">
<g>
	<path d="M6.969,265.678l152.274,152.274c9.29,9.291,24.357,9.291,33.648,0c9.292-9.292,9.292-24.356,0-33.648L81.234,272.646
		h406.675c13.14,0,23.793-10.654,23.793-23.793c0-13.138-10.653-23.793-23.793-23.793H81.234l111.653-111.656
		c9.292-9.294,9.292-24.357,0-33.648c-4.646-4.643-10.735-6.97-16.824-6.97c-6.09,0-12.179,2.327-16.824,6.97L6.969,232.029
		C-2.323,241.321-2.323,256.386,6.969,265.678z"/>
</g>
</svg>
